<?xml version="1.0" standalone="no"?>
<!DOCTYPE svg PUBLIC "-//W3C//DTD SVG 20010904//EN"
 "http://www.w3.org/TR/2001/REC-SVG-20010904/DTD/svg10.dtd">
<svg version="1.0" xmlns="http://www.w3.org/2000/svg"
 width="381.000000pt" height="294.000000pt" viewBox="0 0 381.000000 294.000000"
 preserveAspectRatio="xMidYMid meet">

<g transform="translate(0.000000,294.000000) scale(0.100000,-0.100000)"
fill="#000000" stroke="none">
<path d="M1030 2931 c-78 -24 -149 -80 -182 -146 -26 -50 -35 -158 -18 -211
16 -49 67 -124 84 -124 7 0 57 48 112 107 54 59 138 148 186 197 48 50 88 94
88 99 0 12 -91 66 -130 77 -40 11 -104 12 -140 1z"/>
<path d="M2695 2914 c-84 -44 -84 -33 6 -142 45 -53 124 -150 176 -214 52 -65
99 -118 104 -118 5 0 24 21 43 48 65 88 72 195 21 296 -30 59 -61 89 -132 125
-52 26 -171 29 -218 5z"/>
<path d="M1455 2886 c-16 -7 -40 -25 -53 -38 l-22 -25 21 -47 c29 -67 24 -190
-11 -259 -35 -70 -103 -132 -177 -162 -78 -31 -139 -32 -220 -3 -62 21 -63 21
-84 2 -46 -41 -62 -124 -35 -187 19 -45 123 -141 169 -156 31 -11 48 -11 85 0
40 11 72 38 235 198 127 125 200 190 224 198 45 16 99 3 141 -32 l30 -25 65
63 c35 35 79 74 96 87 17 14 31 29 31 34 0 15 -323 332 -355 348 -39 19 -103
21 -140 4z"/>
<path d="M2305 2879 c-32 -19 -125 -112 -141 -141 -16 -31 -19 -105 -5 -141 5
-13 88 -102 183 -198 96 -96 183 -186 193 -202 31 -49 22 -139 -21 -181 -14
-14 -8 -24 68 -102 46 -47 85 -90 86 -95 8 -21 33 -1 179 144 197 195 221 243
172 343 -31 66 -41 70 -100 45 -101 -41 -245 -19 -325 52 -120 105 -148 248
-80 407 4 10 -6 25 -31 45 -30 24 -49 30 -98 32 -33 2 -69 -2 -80 -8z"/>
<path d="M1045 1640 c-87 -87 -166 -171 -174 -187 -8 -15 -14 -52 -14 -81 1
-44 6 -60 31 -90 33 -40 36 -41 102 -17 62 23 179 16 238 -14 154 -79 225
-244 173 -400 -21 -61 -21 -64 -4 -83 49 -55 147 -67 206 -27 59 42 126 120
137 159 12 46 0 111 -26 143 -10 12 -92 95 -181 185 -90 89 -169 175 -177 190
-27 53 -24 107 9 157 25 36 25 38 8 58 -31 35 -137 142 -154 154 -13 11 -39
-12 -174 -147z"/>
<path d="M2756 1595 c-28 -10 -91 -65 -220 -193 -100 -99 -191 -184 -202 -190
-42 -22 -94 -20 -142 4 l-46 24 -29 -28 c-15 -15 -58 -55 -95 -89 l-67 -63
160 -161 c88 -89 174 -167 192 -175 58 -25 123 -13 181 33 l23 19 -21 65 c-55
160 12 324 164 402 53 27 71 31 141 31 56 0 89 -5 112 -17 48 -26 69 -21 98
20 20 30 25 50 25 97 0 66 -16 99 -77 157 -69 66 -134 87 -197 64z"/>
<path d="M871 1127 c-44 -65 -53 -93 -52 -172 0 -81 15 -123 66 -183 50 -57
105 -84 187 -90 76 -5 138 12 193 54 l36 27 -124 126 c-68 69 -158 161 -199
205 l-75 79 -32 -46z"/>
<path d="M2955 1102 c-43 -41 -258 -224 -330 -282 -24 -19 -44 -40 -45 -46 0
-18 67 -65 121 -85 62 -24 126 -24 188 0 162 61 232 239 154 388 -16 31 -34
58 -39 60 -5 1 -27 -14 -49 -35z"/>
<path d="M1607 688 c-2 -13 -27 -87 -55 -166 l-51 -142 62 40 c34 23 77 48 94
57 18 9 36 26 39 37 3 12 12 35 19 51 16 36 45 125 45 137 0 4 -33 8 -74 8
-68 0 -74 -2 -79 -22z"/>
<path d="M70 553 c0 -4 10 -17 22 -30 l22 -23 -38 -108 c-20 -59 -43 -127 -51
-152 -7 -25 -16 -53 -20 -62 -13 -33 31 -20 120 36 47 30 81 56 75 58 -7 2 -4
27 11 73 16 53 19 73 10 87 -10 17 -5 18 79 18 49 0 90 -4 90 -9 0 -5 -7 -21
-15 -37 -25 -49 -23 -48 142 60 38 24 42 47 13 76 -19 19 -33 20 -240 20 -121
0 -220 -3 -220 -7z"/>
<path d="M780 546 c0 -8 7 -17 16 -20 18 -7 32 11 -200 -256 -81 -94 -147
-173 -145 -174 2 -2 38 19 79 46 41 27 115 75 165 106 49 31 107 76 129 99 24
26 43 38 47 32 7 -11 20 -5 102 49 36 24 38 28 32 61 -13 75 -6 71 -121 71
-82 0 -104 -3 -104 -14z"/>
<path d="M1180 547 c0 -8 9 -22 20 -32 11 -10 17 -22 14 -26 -3 -5 -14 -37
-24 -72 -10 -34 -34 -107 -54 -161 -20 -55 -34 -102 -31 -104 2 -2 43 20 92
50 85 53 89 57 109 114 l22 59 17 -36 18 -37 53 32 c30 17 54 37 54 43 0 7
-19 51 -42 98 l-42 85 -103 0 c-80 0 -103 -3 -103 -13z"/>
<path d="M1790 552 c0 -5 11 -19 25 -32 13 -12 22 -27 19 -31 -12 -19 -103
-293 -99 -297 5 -5 138 72 166 95 9 7 24 38 35 68 15 45 16 59 6 75 -12 19 -9
20 79 20 l91 0 -6 -26 -7 -26 43 24 c24 14 62 35 86 48 47 26 51 41 22 70 -19
19 -33 20 -240 20 -121 0 -220 -4 -220 -8z"/>
<path d="M2360 549 c0 -6 9 -18 21 -28 17 -14 19 -21 11 -41 -6 -14 -18 -50
-27 -80 -9 -30 -22 -69 -30 -86 -26 -56 -30 -112 -10 -134 30 -34 71 -25 156
32 l78 53 -44 3 c-33 2 -44 8 -48 23 -5 18 0 19 72 19 75 0 78 1 149 48 l72
47 -118 3 c-104 2 -119 5 -130 22 -12 20 -9 20 141 20 l154 0 12 41 c7 23 15
47 18 55 4 12 -34 14 -236 14 -167 0 -241 -3 -241 -11z"/>
<path d="M2910 552 c0 -5 11 -19 24 -31 18 -17 22 -28 16 -40 -4 -9 -20 -52
-35 -96 -14 -44 -30 -89 -34 -100 -20 -49 -31 -76 -31 -80 0 -2 40 15 89 38
l90 41 30 81 c37 100 61 173 61 185 0 6 -44 10 -105 10 -58 0 -105 -4 -105 -8z"/>
<path d="M3530 546 c0 -8 7 -17 16 -20 13 -5 10 -13 -18 -45 -68 -80 -212
-246 -218 -251 -72 -70 -42 -57 125 54 105 69 195 129 200 133 6 5 34 23 63
42 51 32 60 49 46 85 -9 22 -214 24 -214 2z"/>
</g>
</svg>
